{
  "accessors": [
    {
      "bufferView": 2,
      "componentType": 5126,
      "count": 65532,
      "max": [
        120.0166015625,
        -17.28123664855957,
        124.02545166015625
      ],
      "min": [
        -67.66352081298828,
        -180.13775634765625,
        -21.758678436279297
      ],
      "type": "VEC3"
    },
    {
      "bufferView": 2,
      "byteOffset": 786384,
      "componentType": 5126,
      "count": 65532,
      "max": [
        0.9999998211860657,
        0.9997552633285522,
        0.9999988079071045
      ],
      "min": [
        -0.9999990463256836,
        -0.9999908804893494,
        -0.9995293021202087
      ],
      "type": "VEC3"
    },
    {
      "bufferView": 1,
      "componentType": 5126,
      "count": 65532,
      "max": [
        0.8459020256996155,
        0.9210489988327026
      ],
      "min": [
        0.17098300158977509,
        0.20000499486923218
      ],
      "type": "VEC2"
    },
    {
      "bufferView": 0,
      "componentType": 5125,
      "count": 322683,
      "type": "SCALAR"
    },
    {
      "bufferView": 2,
      "byteOffset": 1572768,
      "componentType": 5126,
      "count": 65532,
      "max": [
        116.6119613647461,
        -61.03532791137695,
        115.55889892578125
      ],
      "min": [
        -56.84049987792969,
        -176.5918731689453,
        -71.03032684326172
      ],
      "type": "VEC3"
    },
    {
      "bufferView": 2,
      "byteOffset": 2359152,
      "componentType": 5126,
      "count": 65532,
      "max": [
        0.9999952912330627,
        0.9984577894210815,
        0.9999803900718689
      ],
      "min": [
        -0.9999873638153076,
        -0.9998919367790222,
        -0.9999991655349731
      ],
      "type": "VEC3"
    },
    {
      "bufferView": 1,
      "byteOffset": 524256,
      "componentType": 5126,
      "count": 65532,
      "max": [
        0.7965030074119568,
        0.7227069735527039
      ],
      "min": [
        0.03550700098276138,
        0.07720199972391129
      ],
      "type": "VEC2"
    },
    {
      "bufferView": 0,
      "byteOffset": 1290732,
      "componentType": 5125,
      "count": 326814,
      "type": "SCALAR"
    },
    {
      "bufferView": 2,
      "byteOffset": 3145536,
      "componentType": 5126,
      "count": 65532,
      "max": [
        96.3978042602539,
        -28.33345603942871,
        44.248779296875
      ],
      "min": [
        -61.97327423095703,
        -192.7218780517578,
        -71.48735809326172
      ],
      "type": "VEC3"
    },
    {
      "bufferView": 2,
      "byteOffset": 3931920,
      "componentType": 5126,
      "count": 65532,
      "max": [
        0.9999884963035583,
        0.9999195337295532,
        0.9980720281600952
      ],
      "min": [
        -0.99997478723526,
        -0.9999814629554749,
        -0.9999957084655762
      ],
      "type": "VEC3"
    },
    {
      "bufferView": 1,
      "byteOffset": 1048512,
      "componentType": 5126,
      "count": 65532,
      "max": [
        0.9209280014038086,
        0.46155399084091187
      ],
      "min": [
        0.0851529985666275,
        0.009177000261843204
      ],
      "type": "VEC2"
    },
    {
      "bufferView": 0,
      "byteOffset": 2597988,
      "componentType": 5125,
      "count": 326109,
      "type": "SCALAR"
    },
    {
      "bufferView": 2,
      "byteOffset": 4718304,
      "componentType": 5126,
      "count": 65532,
      "max": [
        46.29356384277344,
        -124.7737808227539,
        43.038780212402344
      ],
      "min": [
        -60.61695098876953,
        -198.78909301757813,
        -66.38072967529297
      ],
      "type": "VEC3"
    },
    {
      "bufferView": 2,
      "byteOffset": 5504688,
      "componentType": 5126,
      "count": 65532,
      "max": [
        0.9991776347160339,
        0.9995594620704651,
        0.9997935891151428
      ],
      "min": [
        -0.9999864101409912,
        -0.9999769330024719,
        -0.9999916553497314
      ],
      "type": "VEC3"
    },
    {
      "bufferView": 1,
      "byteOffset": 1572768,
      "componentType": 5126,
      "count": 65532,
      "max": [
        0.9112640023231506,
        0.25432100892066956
      ],
      "min": [
        0.5907739996910095,
        0.000813000020571053
      ],
      "type": "VEC2"
    },
    {
      "bufferView": 0,
      "byteOffset": 3902424,
      "componentType": 5125,
      "count": 341910,
      "type": "SCALAR"
    },
    {
      "bufferView": 2,
      "byteOffset": 6291072,
      "componentType": 5126,
      "count": 65532,
      "max": [
        48.84447479248047,
        -26.166961669921875,
        112.46482849121094
      ],
      "min": [
        -67.9090347290039,
        -196.94920349121094,
        -51.71620559692383
      ],
      "type": "VEC3"
    },
    {
      "bufferView": 2,
      "byteOffset": 7077456,
      "componentType": 5126,
      "count": 65532,
      "max": [
        0.9985211491584778,
        0.9994433522224426,
        0.9999633431434631
      ],
      "min": [
        -0.9999950528144836,
        -0.9999305605888367,
        -0.9999828338623047
      ],
      "type": "VEC3"
    },
    {
      "bufferView": 1,
      "byteOffset": 2097024,
      "componentType": 5126,
      "count": 65532,
      "max": [
        0.9174439907073975,
        0.9873510003089905
      ],
      "min": [
        0.5491060018539429,
        0.0013129999861121178
      ],
      "type": "VEC2"
    },
    {
      "bufferView": 0,
      "byteOffset": 5270064,
      "componentType": 5125,
      "count": 326514,
      "type": "SCALAR"
    },
    {
      "bufferView": 2,
      "byteOffset": 7863840,
      "componentType": 5126,
      "count": 65532,
      "max": [
        98.95767974853516,
        -49.85576248168945,
        116.06197357177734
      ],
      "min": [
        -66.95560455322266,
        -184.36715698242188,
        -49.52656173706055
      ],
      "type": "VEC3"
    },
    {
      "bufferView": 2,
      "byteOffset": 8650224,
      "componentType": 5126,
      "count": 65532,
      "max": [
        0.9998019933700562,
        0.9986210465431213,
        0.999996542930603
      ],
      "min": [
        -0.9999886155128479,
        -0.9999890327453613,
        -0.9997255802154541
      ],
      "type": "VEC3"
    },
    {
      "bufferView": 1,
      "byteOffset": 2621280,
      "componentType": 5126,
      "count": 65532,
      "max": [
        0.8043220043182373,
        0.9487590193748474
      ],
      "min": [
        0.4323340058326721,
        0.30327698588371277
      ],
      "type": "VEC2"
    },
    {
      "bufferView": 0,
      "byteOffset": 6576120,
      "componentType": 5125,
      "count": 313773,
      "type": "SCALAR"
    },
    {
      "bufferView": 2,
      "byteOffset": 9436608,
      "componentType": 5126,
      "count": 65532,
      "max": [
        119.85382843017578,
        -25.349836349487305,
        124.02545166015625
      ],
      "min": [
        -67.90299987792969,
        -196.19032287597656,
        -50.358341217041016
      ],
      "type": "VEC3"
    },
    {
      "bufferView": 2,
      "byteOffset": 10222992,
      "componentType": 5126,
      "count": 65532,
      "max": [
        0.9997758865356445,
        0.9999765753746033,
        0.9999988079071045
      ],
      "min": [
        -0.9999950528144836,
        -0.9999771118164063,
        -0.9999518394470215
      ],
      "type": "VEC3"
    },
    {
      "bufferView": 1,
      "byteOffset": 3145536,
      "componentType": 5126,
      "count": 65532,
      "max": [
        0.8332700133323669,
        0.9774799942970276
      ],
      "min": [
        0.393002986907959,
        0.24203899502754211
      ],
      "type": "VEC2"
    },
    {
      "bufferView": 0,
      "byteOffset": 7831212,
      "componentType": 5125,
      "count": 288627,
      "type": "SCALAR"
    },
    {
      "bufferView": 2,
      "byteOffset": 11009376,
      "componentType": 5126,
      "count": 65532,
      "max": [
        120.05807495117188,
        -17.09857177734375,
        123.93159484863281
      ],
      "min": [
        -64.98832702636719,
        -89.31781005859375,
        -47.997859954833984
      ],
      "type": "VEC3"
    },
    {
      "bufferView": 2,
      "byteOffset": 11795760,
      "componentType": 5126,
      "count": 65532,
      "max": [
        0.9999918937683105,
        0.9999926686286926,
        0.9999882578849792
      ],
      "min": [
        -0.999943733215332,
        -0.9554771184921265,
        -0.9999887347221375
      ],
      "type": "VEC3"
    },
    {
      "bufferView": 1,
      "byteOffset": 3669792,
      "componentType": 5126,
      "count": 65532,
      "max": [
        0.5386800169944763,
        0.9985290169715881
      ],
      "min": [
        0.01203100010752678,
        0.5163760185241699
      ],
      "type": "VEC2"
    },
    {
      "bufferView": 0,
      "byteOffset": 8985720,
      "componentType": 5125,
      "count": 343971,
      "type": "SCALAR"
    },
    {
      "bufferView": 2,
      "byteOffset": 12582144,
      "componentType": 5126,
      "count": 65532,
      "max": [
        120.10924530029297,
        -17.09857177734375,
        123.87016296386719
      ],
      "min": [
        -67.64912414550781,
        -196.31649780273438,
        -70.42341613769531
      ],
      "type": "VEC3"
    },
    {
      "bufferView": 2,
      "byteOffset": 13368528,
      "componentType": 5126,
      "count": 65532,
      "max": [
        0.9999946355819702,
        0.9999619126319885,
        0.9999911189079285
      ],
      "min": [
        -0.9999493360519409,
        -0.9999356865882874,
        -0.9999887347221375
      ],
      "type": "VEC3"
    },
    {
      "bufferView": 1,
      "byteOffset": 4194048,
      "componentType": 5126,
      "count": 65532,
      "max": [
        0.8463360071182251,
        0.9992560148239136
      ],
      "min": [
        0.0007440000190399587,
        0.19712099432945251
      ],
      "type": "VEC2"
    },
    {
      "bufferView": 0,
      "byteOffset": 10361604,
      "componentType": 5125,
      "count": 245649,
      "type": "SCALAR"
    },
    {
      "bufferView": 2,
      "byteOffset": 14154912,
      "componentType": 5126,
      "count": 65532,
      "max": [
        119.94007110595703,
        -27.415620803833008,
        109.48190307617188
      ],
      "min": [
        -62.346317291259766,
        -180.3355712890625,
        -69.78652954101563
      ],
      "type": "VEC3"
    },
    {
      "bufferView": 2,
      "byteOffset": 14941296,
      "componentType": 5126,
      "count": 65532,
      "max": [
        0.9999972581863403,
        0.999992847442627,
        0.9999464750289917
      ],
      "min": [
        -0.9999858736991882,
        -0.9999382495880127,
        -0.9999883770942688
      ],
      "type": "VEC3"
    },
    {
      "bufferView": 1,
      "byteOffset": 4718304,
      "componentType": 5126,
      "count": 65532,
      "max": [
        0.7987719774246216,
        0.8203269839286804
      ],
      "min": [
        0.054694000631570816,
        0.04670900106430054
      ],
      "type": "VEC2"
    },
    {
      "bufferView": 0,
      "byteOffset": 11344200,
      "componentType": 5125,
      "count": 283353,
      "type": "SCALAR"
    },
    {
      "bufferView": 2,
      "byteOffset": 15727680,
      "componentType": 5126,
      "count": 65532,
      "max": [
        116.6119613647461,
        -27.068017959594727,
        60.023841857910156
      ],
      "min": [
        -54.74110412597656,
        -178.46800231933594,
        -72.0428237915039
      ],
      "type": "VEC3"
    },
    {
      "bufferView": 2,
      "byteOffset": 16514064,
      "componentType": 5126,
      "count": 65532,
      "max": [
        0.9999988079071045,
        0.9986720681190491,
        0.9976099133491516
      ],
      "min": [
        -0.9999586343765259,
        -0.9999399781227112,
        -0.9999991655349731
      ],
      "type": "VEC3"
    },
    {
      "bufferView": 1,
      "byteOffset": 5242560,
      "componentType": 5126,
      "count": 65532,
      "max": [
        0.569350004196167,
        0.5319939851760864
      ],
      "min": [
        0.02976199984550476,
        0.05239199846982956
      ],
      "type": "VEC2"
    },
    {
      "bufferView": 0,
      "byteOffset": 12477612,
      "componentType": 5125,
      "count": 292416,
      "type": "SCALAR"
    },
    {
      "bufferView": 2,
      "byteOffset": 17300448,
      "componentType": 5126,
      "count": 46024,
      "max": [
        108.89559173583984,
        -38.838966369628906,
        44.44011688232422
      ],
      "min": [
        -63.12596893310547,
        -181.74526977539063,
        -73.1009292602539
      ],
      "type": "VEC3"
    },
    {
      "bufferView": 2,
      "byteOffset": 17852736,
      "componentType": 5126,
      "count": 46024,
      "max": [
        0.9999732375144958,
        0.999992847442627,
        0.9928648471832275
      ],
      "min": [
        -0.9999805092811584,
        -0.9999976754188538,
        -0.9999920129776001
      ],
      "type": "VEC3"
    },
    {
      "bufferView": 1,
      "byteOffset": 5766816,
      "componentType": 5126,
      "count": 46024,
      "max": [
        0.9209280014038086,
        0.48925700783729553
      ],
      "min": [
        0.05887699872255325,
        0.04069200158119202
      ],
      "type": "VEC2"
    },
    {
      "bufferView": 0,
      "byteOffset": 13647276,
      "componentType": 5125,
      "count": 188181,
      "type": "SCALAR"
    }
  ],
  "asset": {
    "extras": {
      "author": "Arkify 3D (https://sketchfab.com/arkify)",
      "license": "CC-BY-4.0 (http://creativecommons.org/licenses/by/4.0/)",
      "source": "https://sketchfab.com/3d-models/high-poly-grey-beanie-71b55cf7cb4c48f29e170b95b7e7bce0",
      "title": "High Poly Grey Beanie"
    },
    "generator": "Sketchfab-13.72.0",
    "version": "2.0"
  },
  "bufferViews": [
    {
      "buffer": 0,
      "byteLength": 14400000,
      "name": "floatBufferViews",
      "target": 34963
    },
    {
      "buffer": 0,
      "byteLength": 6135008,
      "byteOffset": 14400000,
      "byteStride": 8,
      "name": "floatBufferViews",
      "target": 34962
    },
    {
      "buffer": 0,
      "byteLength": 18405024,
      "byteOffset": 20535008,
      "byteStride": 12,
      "name": "floatBufferViews",
      "target": 34962
    }
  ],
  "buffers": [
    {
      "byteLength": 38940032,
      "uri": "scene.bin"
    }
  ],
  "images": [
    {
      "uri": "textures/material_0_baseColor.jpeg"
    }
  ],
  "materials": [
    {
      "doubleSided": true,
      "name": "material_0",
      "pbrMetallicRoughness": {
        "baseColorTexture": {
          "index": 0
        },
        "metallicFactor": 0.0
      }
    }
  ],
  "meshes": [
    {
      "name": "Object_0",
      "primitives": [
        {
          "attributes": {
            "NORMAL": 1,
            "POSITION": 0,
            "TEXCOORD_0": 2
          },
          "indices": 3,
          "material": 0,
          "mode": 4
        }
      ]
    },
    {
      "name": "Object_1",
      "primitives": [
        {
          "attributes": {
            "NORMAL": 5,
            "POSITION": 4,
            "TEXCOORD_0": 6
          },
          "indices": 7,
          "material": 0,
          "mode": 4
        }
      ]
    },
    {
      "name": "Object_2",
      "primitives": [
        {
          "attributes": {
            "NORMAL": 9,
            "POSITION": 8,
            "TEXCOORD_0": 10
          },
          "indices": 11,
          "material": 0,
          "mode": 4
        }
      ]
    },
    {
      "name": "Object_3",
      "primitives": [
        {
          "attributes": {
            "NORMAL": 13,
            "POSITION": 12,
            "TEXCOORD_0": 14
          },
          "indices": 15,
          "material": 0,
          "mode": 4
        }
      ]
    },
    {
      "name": "Object_4",
      "primitives": [
        {
          "attributes": {
            "NORMAL": 17,
            "POSITION": 16,
            "TEXCOORD_0": 18
          },
          "indices": 19,
          "material": 0,
          "mode": 4
        }
      ]
    },
    {
      "name": "Object_5",
      "primitives": [
        {
          "attributes": {
            "NORMAL": 21,
            "POSITION": 20,
            "TEXCOORD_0": 22
          },
          "indices": 23,
          "material": 0,
          "mode": 4
        }
      ]
    },
    {
      "name": "Object_6",
      "primitives": [
        {
          "attributes": {
            "NORMAL": 25,
            "POSITION": 24,
            "TEXCOORD_0": 26
          },
          "indices": 27,
          "material": 0,
          "mode": 4
        }
      ]
    },
    {
      "name": "Object_7",
      "primitives": [
        {
          "attributes": {
            "NORMAL": 29,
            "POSITION": 28,
            "TEXCOORD_0": 30
          },
          "indices": 31,
          "material": 0,
          "mode": 4
        }
      ]
    },
    {
      "name": "Object_8",
      "primitives": [
        {
          "attributes": {
            "NORMAL": 33,
            "POSITION": 32,
            "TEXCOORD_0": 34
          },
          "indices": 35,
          "material": 0,
          "mode": 4
        }
      ]
    },
    {
      "name": "Object_9",
      "primitives": [
        {
          "attributes": {
            "NORMAL": 37,
            "POSITION": 36,
            "TEXCOORD_0": 38
          },
          "indices": 39,
          "material": 0,
          "mode": 4
        }
      ]
    },
    {
      "name": "Object_10",
      "primitives": [
        {
          "attributes": {
            "NORMAL": 41,
            "POSITION": 40,
            "TEXCOORD_0": 42
          },
          "indices": 43,
          "material": 0,
          "mode": 4
        }
      ]
    },
    {
      "name": "Object_11",
      "primitives": [
        {
          "attributes": {
            "NORMAL": 45,
            "POSITION": 44,
            "TEXCOORD_0": 46
          },
          "indices": 47,
          "material": 0,
          "mode": 4
        }
      ]
    }
  ],
  "nodes": [
    {
      "children": [
        1
      ],
      "matrix": [
        0.6855243444442749,
        -0.05216648802161201,
        -0.7261783480644226,
        0.0,
        -0.05580100789666176,
        -0.9982604384422302,
        0.019034983590245025,
        0.0,
        -0.7259081602096558,
        0.027472540736198578,
        -0.6872428059577942,
        0.0,
        0.0,
        0.0,
        0.0,
        1.0
      ],
      "name": "Sketchfab_model"
    },
    {
      "children": [
        2,
        3,
        4,
        5,
        6,
        7,
        8,
        9,
        10,
        11,
        12,
        13
      ],
      "name": "GreyBeanie.obj.cleaner.materialmerger.gles"
    },
    {
      "mesh": 0,
      "name": "Object_2"
    },
    {
      "mesh": 1,
      "name": "Object_3"
    },
    {
      "mesh": 2,
      "name": "Object_4"
    },
    {
      "mesh": 3,
      "name": "Object_5"
    },
    {
      "mesh": 4,
      "name": "Object_6"
    },
    {
      "mesh": 5,
      "name": "Object_7"
    },
    {
      "mesh": 6,
      "name": "Object_8"
    },
    {
      "mesh": 7,
      "name": "Object_9"
    },
    {
      "mesh": 8,
      "name": "Object_10"
    },
    {
      "mesh": 9,
      "name": "Object_11"
    },
    {
      "mesh": 10,
      "name": "Object_12"
    },
    {
      "mesh": 11,
      "name": "Object_13"
    }
  ],
  "samplers": [
    {
      "magFilter": 9729,
      "minFilter": 9987,
      "wrapS": 10497,
      "wrapT": 10497
    }
  ],
  "scene": 0,
  "scenes": [
    {
      "name": "Sketchfab_Scene",
      "nodes": [
        0
      ]
    }
  ],
  "textures": [
    {
      "sampler": 0,
      "source": 0
    }
  ]
}
