{
  "accessors": [
    {
      "bufferView": 2,
      "componentType": 5126,
      "count": 4844,
      "max": [
        20.230772018432617,
        519.1104125976563,
        41.48797607421875
      ],
      "min": [
        -20.230772018432617,
        506.92242431640625,
        40.44157409667969
      ],
      "type": "VEC3"
    },
    {
      "bufferView": 2,
      "byteOffset": 58128,
      "componentType": 5126,
      "count": 4844,
      "max": [
        0.9998598694801331,
        0.9989649653434753,
        1.0
      ],
      "min": [
        -0.9998598694801331,
        -0.9978485107421875,
        -1.0
      ],
      "type": "VEC3"
    },
    {
      "bufferView": 1,
      "componentType": 5126,
      "count": 4844,
      "max": [
        0.97735595703125,
        0.9588470458984375
      ],
      "min": [
        0.0,
        0.0408935546875
      ],
      "type": "VEC2"
    },
    {
      "bufferView": 0,
      "componentType": 5125,
      "count": 24576,
      "type": "SCALAR"
    },
    {
      "bufferView": 2,
      "byteOffset": 116256,
      "componentType": 5126,
      "count": 28511,
      "max": [
        24.210575103759766,
        521.1115112304688,
        42.47990036010742
      ],
      "min": [
        -24.210575103759766,
        505.6884460449219,
        11.26728343963623
      ],
      "type": "VEC3"
    },
    {
      "bufferView": 2,
      "byteOffset": 458388,
      "componentType": 5126,
      "count": 28511,
      "max": [
        0.9999991059303284,
        0.9999992251396179,
        1.0
      ],
      "min": [
        -1.0,
        -0.9999994039535522,
        -1.0
      ],
      "type": "VEC3"
    },
    {
      "bufferView": 1,
      "byteOffset": 38752,
      "componentType": 5126,
      "count": 28511,
      "max": [
        1.0,
        0.8362579345703125
      ],
      "min": [
        0.0,
        0.0
      ],
      "type": "VEC2"
    },
    {
      "bufferView": 0,
      "byteOffset": 98304,
      "componentType": 5125,
      "count": 150528,
      "type": "SCALAR"
    }
  ],
  "asset": {
    "extras": {
      "author": "Matt.James1 (https://sketchfab.com/Matt.James1)",
      "license": "CC-BY-4.0 (http://creativecommons.org/licenses/by/4.0/)",
      "source": "https://sketchfab.com/3d-models/cat-eye-glasses-55a5041d36b64b40b0a560858d364da7",
      "title": "Cat Eye Glasses"
    },
    "generator": "Sketchfab-14.5.0",
    "version": "2.0"
  },
  "bufferViews": [
    {
      "buffer": 0,
      "byteLength": 700416,
      "name": "floatBufferViews",
      "target": 34963
    },
    {
      "buffer": 0,
      "byteLength": 266840,
      "byteOffset": 700416,
      "byteStride": 8,
      "name": "floatBufferViews",
      "target": 34962
    },
    {
      "buffer": 0,
      "byteLength": 800520,
      "byteOffset": 967256,
      "byteStride": 12,
      "name": "floatBufferViews",
      "target": 34962
    }
  ],
  "buffers": [
    {
      "byteLength": 1767776,
      "uri": "scene.bin"
    }
  ],
  "materials": [
    {
      "doubleSided": true,
      "name": "Lens",
      "pbrMetallicRoughness": {
        "baseColorFactor": [
          0.00561798,
          0.00538973,
          0.00197172,
          1.0
        ],
        "metallicFactor": 0.842324,
        "roughnessFactor": 0.5
      }
    },
    {
      "doubleSided": true,
      "name": "Frame",
      "pbrMetallicRoughness": {
        "baseColorFactor": [
          0.647529,
          0.0,
          0.647529,
          1.0
        ],
        "metallicFactor": 0.0,
        "roughnessFactor": 0.5
      }
    }
  ],
  "meshes": [
    {
      "name": "Object_0",
      "primitives": [
        {
          "attributes": {
            "NORMAL": 1,
            "POSITION": 0,
            "TEXCOORD_0": 2
          },
          "indices": 3,
          "material": 0,
          "mode": 4
        }
      ]
    },
    {
      "name": "Object_1",
      "primitives": [
        {
          "attributes": {
            "NORMAL": 5,
            "POSITION": 4,
            "TEXCOORD_0": 6
          },
          "indices": 7,
          "material": 1,
          "mode": 4
        }
      ]
    }
  ],
  "nodes": [
    {
      "children": [
        1
      ],
      "matrix": [
        1.0,
        0.0,
        0.0,
        0.0,
        0.0,
        2.220446049250313e-16,
        -1.0,
        0.0,
        0.0,
        1.0,
        2.220446049250313e-16,
        0.0,
        0.0,
        0.0,
        0.0,
        1.0
      ],
      "name": "Sketchfab_model"
    },
    {
      "children": [
        2
      ],
      "name": "root"
    },
    {
      "children": [
        3
      ],
      "matrix": [
        1.0,
        0.0,
        0.0,
        0.0,
        0.0,
        2.220446049250313e-16,
        1.0,
        0.0,
        0.0,
        -1.0,
        2.220446049250313e-16,
        0.0,
        0.0,
        0.0,
        0.0,
        1.0
      ],
      "name": "GLTF_SceneRootNode"
    },
    {
      "children": [
        4,
        5
      ],
      "matrix": [
        0.03294159844517708,
        0.0,
        0.0,
        0.0,
        0.0,
        0.03294159844517708,
        0.0,
        0.0,
        0.0,
        0.0,
        0.03294159844517708,
        0.0,
        0.0,
        0.0,
        0.0,
        1.0
      ],
      "name": "Glasses_2"
    },
    {
      "mesh": 0,
      "name": "Object_4"
    },
    {
      "mesh": 1,
      "name": "Object_5"
    }
  ],
  "scene": 0,
  "scenes": [
    {
      "name": "Sketchfab_Scene",
      "nodes": [
        0
      ]
    }
  ]
}
